<?xml version="1.0" standalone="no"?><!DOCTYPE svg PUBLIC "-//W3C//DTD SVG 1.1//EN" "http://www.w3.org/Graphics/SVG/1.1/DTD/svg11.dtd"><svg t="1775032818969" class="icon" viewBox="0 0 1024 1024" version="1.1" xmlns="http://www.w3.org/2000/svg" p-id="3348" xmlns:xlink="http://www.w3.org/1999/xlink" width="48" height="48"><path d="M882.773333 530.346667L512 715.946667V938.666667l370.773333-185.6v-222.72z" fill="#4285F4" p-id="3349"></path><path d="M289.28 196.693333L141.226667 270.933333z" fill="#1E88E5" p-id="3350"></path><path d="M734.72 345.173333v185.173334l148.053333-73.813334V270.933333l-148.053333 74.24zM512 641.706667l148.48-73.813334V382.293333L512 456.533333v185.173334z" fill="#4285F4" p-id="3351"></path><path d="M289.28 196.693333L141.226667 270.933333l148.053333 74.24 148.48-74.24-148.48-74.24z" fill="#AECBFA" p-id="3352"></path><path d="M512 85.333333L363.52 159.573333 512 233.813333l222.72 111.36 148.053333-74.24L512 85.333333z" fill="#AECBFA" p-id="3353"></path><path d="M512 308.053333L363.52 382.293333 512 456.533333l148.48-74.24L512 308.053333z" fill="#AECBFA" p-id="3354"></path><path d="M363.52 640v222.72L512 938.666667v-222.72z m111.36 222.72l-74.24-37.12v-109.653333l74.24 37.12zM141.226667 270.933333v482.133334l148.053333 74.24V345.173333z m111.36 482.133334l-74.666667-37.12v-426.666667l74.666667 37.12zM363.52 384L512 456.533333V640l-148.48-72.106667z m111.36 185.6v-128l-74.24-38.4v128z" fill="#669DF6" p-id="3355"></path></svg>